<svg xmlns="http://www.w3.org/2000/svg" width="20" height="20" fill="none"><title>webNavigation.socialAccessibilityLabels.instagram</title><g fill="var(--1g2390h, rgba(47, 49, 63, 1.0))"><path d="M17.456 6.92a5.442 5.442 0 0 0-.35-1.846 3.841 3.841 0 0 0-2.193-2.194 5.506 5.506 0 0 0-1.822-.35c-.802-.036-1.056-.046-3.09-.046-2.036 0-2.297 0-3.093.046a5.505 5.505 0 0 0-1.82.35 3.84 3.84 0 0 0-2.195 2.194 5.461 5.461 0 0 0-.349 1.821c-.036.802-.046 1.057-.046 3.092s0 2.295.046 3.091c.013.624.13 1.239.35 1.823a3.841 3.841 0 0 0 2.194 2.193 5.485 5.485 0 0 0 1.821.375c.803.036 1.057.047 3.092.047s2.296 0 3.092-.047a5.49 5.49 0 0 0 1.821-.349 3.846 3.846 0 0 0 2.194-2.194c.22-.584.337-1.199.35-1.823.035-.801.046-1.056.046-3.091-.001-2.035-.001-2.294-.048-3.091Zm-7.46 6.915a3.852 3.852 0 1 1-.003-7.703 3.852 3.852 0 0 1 .002 7.703ZM14 6.885a.897.897 0 1 1-.002-1.794.897.897 0 0 1 .002 1.795Z"></path><path d="M9.995 12.485a2.502 2.502 0 1 0 0-5.005 2.502 2.502 0 0 0 0 5.005Z"></path></g></svg>