<svg xmlns="http://www.w3.org/2000/svg" width="20" height="20" fill="none"><title>webNavigation.socialAccessibilityLabels.twitter</title><path fill="var(--1g2390h, rgba(47, 49, 63, 1.0))" d="M16.36 6.664c.012.146.012.291.012.436 0 4.438-3.378 9.55-9.55 9.55a9.484 9.484 0 0 1-5.155-1.507c.27.031.53.042.81.042a6.725 6.725 0 0 0 4.168-1.434 3.363 3.363 0 0 1-3.14-2.328c.208.031.417.052.635.052.3 0 .603-.042.884-.114a3.356 3.356 0 0 1-2.691-3.294v-.042c.447.25.966.405 1.516.426a3.352 3.352 0 0 1-1.496-2.795c0-.624.165-1.195.456-1.694a9.547 9.547 0 0 0 6.922 3.513 3.815 3.815 0 0 1-.083-.77 3.355 3.355 0 0 1 3.356-3.356c.967 0 1.84.405 2.453 1.06a6.63 6.63 0 0 0 2.13-.81 3.35 3.35 0 0 1-1.476 1.85 6.727 6.727 0 0 0 1.932-.52 7.203 7.203 0 0 1-1.682 1.735Z"></path></svg>